<mxfile host="app.diagrams.net" agent="Mozilla/5.0 (Windows NT 10.0; Win64; x64; rv:123.0) Gecko/20100101 Firefox/123.0" version="24.7.17">
  <diagram name="Page-1" id="UUnW9URFbVI3JaG91hQ5">
    <mxGraphModel dx="1434" dy="734" grid="1" gridSize="10" guides="1" tooltips="1" connect="1" arrows="1" fold="1" page="1" pageScale="1" pageWidth="1200" pageHeight="1920" math="0" shadow="0">
      <root>
        <mxCell id="0" />
        <mxCell id="1" parent="0" />
        <mxCell id="g_ri7xsNn-ehxnNiRQ7a-1" value="Film" style="rounded=0;whiteSpace=wrap;html=1;fillColor=#e1d5e7;strokeColor=#9673a6;" vertex="1" parent="1">
          <mxGeometry x="280" y="360" width="130" height="80" as="geometry" />
        </mxCell>
        <mxCell id="g_ri7xsNn-ehxnNiRQ7a-2" value="Színész" style="rounded=0;whiteSpace=wrap;html=1;fillColor=#e1d5e7;strokeColor=#9673a6;" vertex="1" parent="1">
          <mxGeometry x="700" y="360" width="130" height="80" as="geometry" />
        </mxCell>
        <mxCell id="g_ri7xsNn-ehxnNiRQ7a-3" value="" style="endArrow=classic;html=1;rounded=0;entryX=0;entryY=0.5;entryDx=0;entryDy=0;startArrow=classic;startFill=1;" edge="1" parent="1" target="g_ri7xsNn-ehxnNiRQ7a-2">
          <mxGeometry width="50" height="50" relative="1" as="geometry">
            <mxPoint x="600" y="400" as="sourcePoint" />
            <mxPoint x="670" y="350" as="targetPoint" />
          </mxGeometry>
        </mxCell>
        <mxCell id="g_ri7xsNn-ehxnNiRQ7a-4" value="" style="endArrow=classic;html=1;rounded=0;entryX=0;entryY=0.5;entryDx=0;entryDy=0;endFill=1;startArrow=classic;startFill=1;" edge="1" parent="1">
          <mxGeometry width="50" height="50" relative="1" as="geometry">
            <mxPoint x="410" y="399.5" as="sourcePoint" />
            <mxPoint x="510" y="399.5" as="targetPoint" />
          </mxGeometry>
        </mxCell>
        <mxCell id="g_ri7xsNn-ehxnNiRQ7a-5" value="f-sz" style="rhombus;whiteSpace=wrap;html=1;fillColor=#d5e8d4;strokeColor=#82b366;" vertex="1" parent="1">
          <mxGeometry x="510" y="360" width="90" height="80" as="geometry" />
        </mxCell>
        <mxCell id="g_ri7xsNn-ehxnNiRQ7a-6" value="" style="endArrow=none;html=1;rounded=0;entryX=0.5;entryY=1;entryDx=0;entryDy=0;" edge="1" parent="1" target="g_ri7xsNn-ehxnNiRQ7a-9">
          <mxGeometry width="50" height="50" relative="1" as="geometry">
            <mxPoint x="345" y="360" as="sourcePoint" />
            <mxPoint x="430" y="310" as="targetPoint" />
          </mxGeometry>
        </mxCell>
        <mxCell id="g_ri7xsNn-ehxnNiRQ7a-7" value="" style="endArrow=none;html=1;rounded=0;exitX=0.5;exitY=0;exitDx=0;exitDy=0;" edge="1" parent="1" source="g_ri7xsNn-ehxnNiRQ7a-1">
          <mxGeometry width="50" height="50" relative="1" as="geometry">
            <mxPoint x="330" y="350" as="sourcePoint" />
            <mxPoint x="345" y="300" as="targetPoint" />
          </mxGeometry>
        </mxCell>
        <mxCell id="g_ri7xsNn-ehxnNiRQ7a-9" value="műfaj" style="ellipse;whiteSpace=wrap;html=1;fillColor=#fff2cc;strokeColor=#d6b656;" vertex="1" parent="1">
          <mxGeometry x="400" y="260" width="70" height="50" as="geometry" />
        </mxCell>
        <mxCell id="g_ri7xsNn-ehxnNiRQ7a-10" value="&lt;u&gt;cím&lt;/u&gt;" style="ellipse;whiteSpace=wrap;html=1;fillColor=#fff2cc;strokeColor=#d6b656;" vertex="1" parent="1">
          <mxGeometry x="310" y="250" width="70" height="50" as="geometry" />
        </mxCell>
        <mxCell id="g_ri7xsNn-ehxnNiRQ7a-11" value="" style="endArrow=none;html=1;rounded=0;exitX=0.5;exitY=0;exitDx=0;exitDy=0;" edge="1" parent="1" source="g_ri7xsNn-ehxnNiRQ7a-1">
          <mxGeometry width="50" height="50" relative="1" as="geometry">
            <mxPoint x="280" y="350" as="sourcePoint" />
            <mxPoint x="250" y="310" as="targetPoint" />
          </mxGeometry>
        </mxCell>
        <mxCell id="g_ri7xsNn-ehxnNiRQ7a-13" value="&lt;div&gt;megjelenési&lt;/div&gt;&lt;div&gt;év&lt;br&gt;&lt;/div&gt;" style="ellipse;whiteSpace=wrap;html=1;fillColor=#fff2cc;strokeColor=#d6b656;" vertex="1" parent="1">
          <mxGeometry x="210" y="260" width="70" height="50" as="geometry" />
        </mxCell>
        <mxCell id="g_ri7xsNn-ehxnNiRQ7a-14" value="" style="endArrow=none;html=1;rounded=0;exitX=0.5;exitY=0;exitDx=0;exitDy=0;" edge="1" parent="1">
          <mxGeometry width="50" height="50" relative="1" as="geometry">
            <mxPoint x="764.5" y="360" as="sourcePoint" />
            <mxPoint x="764.5" y="300" as="targetPoint" />
          </mxGeometry>
        </mxCell>
        <mxCell id="g_ri7xsNn-ehxnNiRQ7a-15" value="" style="endArrow=none;html=1;rounded=0;entryX=0.5;entryY=1;entryDx=0;entryDy=0;exitX=0.5;exitY=0;exitDx=0;exitDy=0;" edge="1" parent="1" source="g_ri7xsNn-ehxnNiRQ7a-2" target="g_ri7xsNn-ehxnNiRQ7a-17">
          <mxGeometry width="50" height="50" relative="1" as="geometry">
            <mxPoint x="760" y="360" as="sourcePoint" />
            <mxPoint x="850" y="310" as="targetPoint" />
          </mxGeometry>
        </mxCell>
        <mxCell id="g_ri7xsNn-ehxnNiRQ7a-16" value="" style="endArrow=none;html=1;rounded=0;exitX=0.5;exitY=0;exitDx=0;exitDy=0;entryX=0.5;entryY=1;entryDx=0;entryDy=0;" edge="1" parent="1" target="g_ri7xsNn-ehxnNiRQ7a-19">
          <mxGeometry width="50" height="50" relative="1" as="geometry">
            <mxPoint x="765" y="360" as="sourcePoint" />
            <mxPoint x="670" y="310" as="targetPoint" />
          </mxGeometry>
        </mxCell>
        <mxCell id="g_ri7xsNn-ehxnNiRQ7a-17" value="születési év" style="ellipse;whiteSpace=wrap;html=1;fillColor=#fff2cc;strokeColor=#d6b656;" vertex="1" parent="1">
          <mxGeometry x="810" y="255" width="80" height="55" as="geometry" />
        </mxCell>
        <mxCell id="g_ri7xsNn-ehxnNiRQ7a-18" value="&lt;u&gt;név&lt;/u&gt;" style="ellipse;whiteSpace=wrap;html=1;fillColor=#fff2cc;strokeColor=#d6b656;" vertex="1" parent="1">
          <mxGeometry x="725" y="247.5" width="80" height="55" as="geometry" />
        </mxCell>
        <mxCell id="g_ri7xsNn-ehxnNiRQ7a-19" value="nyert díjak" style="ellipse;whiteSpace=wrap;html=1;fillColor=#fff2cc;strokeColor=#d6b656;" vertex="1" parent="1">
          <mxGeometry x="630" y="257.5" width="80" height="55" as="geometry" />
        </mxCell>
      </root>
    </mxGraphModel>
  </diagram>
</mxfile>
